G04 EAGLE Gerber RS-274X export*
G75*
%MOMM*%
%FSLAX34Y34*%
%LPD*%
%INTop Copper*%
%IPPOS*%
%AMOC8*
5,1,8,0,0,1.08239X$1,22.5*%
G01*
%ADD10C,0.000000*%
%ADD11R,1.350000X0.400000*%
%ADD12C,1.459600*%
%ADD13C,2.250000*%
%ADD14C,1.879600*%
%ADD15C,1.509600*%
%ADD16P,1.539592X8X112.500000*%
%ADD17C,1.609600*%
%ADD18C,1.422400*%
%ADD19P,1.539592X8X292.500000*%
%ADD20P,1.539592X8X202.500000*%
%ADD21P,2.034460X8X112.500000*%
%ADD22C,1.422400*%
%ADD23P,1.539592X8X22.500000*%
%ADD24C,0.406400*%
%ADD25C,1.016000*%


D10*
X0Y0D02*
X1000000Y0D01*
X1000000Y1000000D01*
X0Y1000000D01*
X0Y0D01*
X9525Y980440D02*
X9530Y980830D01*
X9544Y981219D01*
X9568Y981608D01*
X9601Y981996D01*
X9644Y982383D01*
X9697Y982769D01*
X9759Y983154D01*
X9830Y983537D01*
X9911Y983918D01*
X10001Y984297D01*
X10100Y984674D01*
X10209Y985048D01*
X10326Y985420D01*
X10453Y985788D01*
X10589Y986153D01*
X10733Y986515D01*
X10887Y986873D01*
X11049Y987227D01*
X11220Y987578D01*
X11399Y987923D01*
X11587Y988265D01*
X11784Y988601D01*
X11988Y988933D01*
X12200Y989260D01*
X12421Y989581D01*
X12649Y989897D01*
X12885Y990207D01*
X13128Y990511D01*
X13379Y990809D01*
X13637Y991101D01*
X13903Y991386D01*
X14175Y991665D01*
X14454Y991937D01*
X14739Y992203D01*
X15031Y992461D01*
X15329Y992712D01*
X15633Y992955D01*
X15943Y993191D01*
X16259Y993419D01*
X16580Y993640D01*
X16907Y993852D01*
X17239Y994056D01*
X17575Y994253D01*
X17917Y994441D01*
X18262Y994620D01*
X18613Y994791D01*
X18967Y994953D01*
X19325Y995107D01*
X19687Y995251D01*
X20052Y995387D01*
X20420Y995514D01*
X20792Y995631D01*
X21166Y995740D01*
X21543Y995839D01*
X21922Y995929D01*
X22303Y996010D01*
X22686Y996081D01*
X23071Y996143D01*
X23457Y996196D01*
X23844Y996239D01*
X24232Y996272D01*
X24621Y996296D01*
X25010Y996310D01*
X25400Y996315D01*
X25790Y996310D01*
X26179Y996296D01*
X26568Y996272D01*
X26956Y996239D01*
X27343Y996196D01*
X27729Y996143D01*
X28114Y996081D01*
X28497Y996010D01*
X28878Y995929D01*
X29257Y995839D01*
X29634Y995740D01*
X30008Y995631D01*
X30380Y995514D01*
X30748Y995387D01*
X31113Y995251D01*
X31475Y995107D01*
X31833Y994953D01*
X32187Y994791D01*
X32538Y994620D01*
X32883Y994441D01*
X33225Y994253D01*
X33561Y994056D01*
X33893Y993852D01*
X34220Y993640D01*
X34541Y993419D01*
X34857Y993191D01*
X35167Y992955D01*
X35471Y992712D01*
X35769Y992461D01*
X36061Y992203D01*
X36346Y991937D01*
X36625Y991665D01*
X36897Y991386D01*
X37163Y991101D01*
X37421Y990809D01*
X37672Y990511D01*
X37915Y990207D01*
X38151Y989897D01*
X38379Y989581D01*
X38600Y989260D01*
X38812Y988933D01*
X39016Y988601D01*
X39213Y988265D01*
X39401Y987923D01*
X39580Y987578D01*
X39751Y987227D01*
X39913Y986873D01*
X40067Y986515D01*
X40211Y986153D01*
X40347Y985788D01*
X40474Y985420D01*
X40591Y985048D01*
X40700Y984674D01*
X40799Y984297D01*
X40889Y983918D01*
X40970Y983537D01*
X41041Y983154D01*
X41103Y982769D01*
X41156Y982383D01*
X41199Y981996D01*
X41232Y981608D01*
X41256Y981219D01*
X41270Y980830D01*
X41275Y980440D01*
X41270Y980050D01*
X41256Y979661D01*
X41232Y979272D01*
X41199Y978884D01*
X41156Y978497D01*
X41103Y978111D01*
X41041Y977726D01*
X40970Y977343D01*
X40889Y976962D01*
X40799Y976583D01*
X40700Y976206D01*
X40591Y975832D01*
X40474Y975460D01*
X40347Y975092D01*
X40211Y974727D01*
X40067Y974365D01*
X39913Y974007D01*
X39751Y973653D01*
X39580Y973302D01*
X39401Y972957D01*
X39213Y972615D01*
X39016Y972279D01*
X38812Y971947D01*
X38600Y971620D01*
X38379Y971299D01*
X38151Y970983D01*
X37915Y970673D01*
X37672Y970369D01*
X37421Y970071D01*
X37163Y969779D01*
X36897Y969494D01*
X36625Y969215D01*
X36346Y968943D01*
X36061Y968677D01*
X35769Y968419D01*
X35471Y968168D01*
X35167Y967925D01*
X34857Y967689D01*
X34541Y967461D01*
X34220Y967240D01*
X33893Y967028D01*
X33561Y966824D01*
X33225Y966627D01*
X32883Y966439D01*
X32538Y966260D01*
X32187Y966089D01*
X31833Y965927D01*
X31475Y965773D01*
X31113Y965629D01*
X30748Y965493D01*
X30380Y965366D01*
X30008Y965249D01*
X29634Y965140D01*
X29257Y965041D01*
X28878Y964951D01*
X28497Y964870D01*
X28114Y964799D01*
X27729Y964737D01*
X27343Y964684D01*
X26956Y964641D01*
X26568Y964608D01*
X26179Y964584D01*
X25790Y964570D01*
X25400Y964565D01*
X25010Y964570D01*
X24621Y964584D01*
X24232Y964608D01*
X23844Y964641D01*
X23457Y964684D01*
X23071Y964737D01*
X22686Y964799D01*
X22303Y964870D01*
X21922Y964951D01*
X21543Y965041D01*
X21166Y965140D01*
X20792Y965249D01*
X20420Y965366D01*
X20052Y965493D01*
X19687Y965629D01*
X19325Y965773D01*
X18967Y965927D01*
X18613Y966089D01*
X18262Y966260D01*
X17917Y966439D01*
X17575Y966627D01*
X17239Y966824D01*
X16907Y967028D01*
X16580Y967240D01*
X16259Y967461D01*
X15943Y967689D01*
X15633Y967925D01*
X15329Y968168D01*
X15031Y968419D01*
X14739Y968677D01*
X14454Y968943D01*
X14175Y969215D01*
X13903Y969494D01*
X13637Y969779D01*
X13379Y970071D01*
X13128Y970369D01*
X12885Y970673D01*
X12649Y970983D01*
X12421Y971299D01*
X12200Y971620D01*
X11988Y971947D01*
X11784Y972279D01*
X11587Y972615D01*
X11399Y972957D01*
X11220Y973302D01*
X11049Y973653D01*
X10887Y974007D01*
X10733Y974365D01*
X10589Y974727D01*
X10453Y975092D01*
X10326Y975460D01*
X10209Y975832D01*
X10100Y976206D01*
X10001Y976583D01*
X9911Y976962D01*
X9830Y977343D01*
X9759Y977726D01*
X9697Y978111D01*
X9644Y978497D01*
X9601Y978884D01*
X9568Y979272D01*
X9544Y979661D01*
X9530Y980050D01*
X9525Y980440D01*
X9525Y787400D02*
X9530Y787790D01*
X9544Y788179D01*
X9568Y788568D01*
X9601Y788956D01*
X9644Y789343D01*
X9697Y789729D01*
X9759Y790114D01*
X9830Y790497D01*
X9911Y790878D01*
X10001Y791257D01*
X10100Y791634D01*
X10209Y792008D01*
X10326Y792380D01*
X10453Y792748D01*
X10589Y793113D01*
X10733Y793475D01*
X10887Y793833D01*
X11049Y794187D01*
X11220Y794538D01*
X11399Y794883D01*
X11587Y795225D01*
X11784Y795561D01*
X11988Y795893D01*
X12200Y796220D01*
X12421Y796541D01*
X12649Y796857D01*
X12885Y797167D01*
X13128Y797471D01*
X13379Y797769D01*
X13637Y798061D01*
X13903Y798346D01*
X14175Y798625D01*
X14454Y798897D01*
X14739Y799163D01*
X15031Y799421D01*
X15329Y799672D01*
X15633Y799915D01*
X15943Y800151D01*
X16259Y800379D01*
X16580Y800600D01*
X16907Y800812D01*
X17239Y801016D01*
X17575Y801213D01*
X17917Y801401D01*
X18262Y801580D01*
X18613Y801751D01*
X18967Y801913D01*
X19325Y802067D01*
X19687Y802211D01*
X20052Y802347D01*
X20420Y802474D01*
X20792Y802591D01*
X21166Y802700D01*
X21543Y802799D01*
X21922Y802889D01*
X22303Y802970D01*
X22686Y803041D01*
X23071Y803103D01*
X23457Y803156D01*
X23844Y803199D01*
X24232Y803232D01*
X24621Y803256D01*
X25010Y803270D01*
X25400Y803275D01*
X25790Y803270D01*
X26179Y803256D01*
X26568Y803232D01*
X26956Y803199D01*
X27343Y803156D01*
X27729Y803103D01*
X28114Y803041D01*
X28497Y802970D01*
X28878Y802889D01*
X29257Y802799D01*
X29634Y802700D01*
X30008Y802591D01*
X30380Y802474D01*
X30748Y802347D01*
X31113Y802211D01*
X31475Y802067D01*
X31833Y801913D01*
X32187Y801751D01*
X32538Y801580D01*
X32883Y801401D01*
X33225Y801213D01*
X33561Y801016D01*
X33893Y800812D01*
X34220Y800600D01*
X34541Y800379D01*
X34857Y800151D01*
X35167Y799915D01*
X35471Y799672D01*
X35769Y799421D01*
X36061Y799163D01*
X36346Y798897D01*
X36625Y798625D01*
X36897Y798346D01*
X37163Y798061D01*
X37421Y797769D01*
X37672Y797471D01*
X37915Y797167D01*
X38151Y796857D01*
X38379Y796541D01*
X38600Y796220D01*
X38812Y795893D01*
X39016Y795561D01*
X39213Y795225D01*
X39401Y794883D01*
X39580Y794538D01*
X39751Y794187D01*
X39913Y793833D01*
X40067Y793475D01*
X40211Y793113D01*
X40347Y792748D01*
X40474Y792380D01*
X40591Y792008D01*
X40700Y791634D01*
X40799Y791257D01*
X40889Y790878D01*
X40970Y790497D01*
X41041Y790114D01*
X41103Y789729D01*
X41156Y789343D01*
X41199Y788956D01*
X41232Y788568D01*
X41256Y788179D01*
X41270Y787790D01*
X41275Y787400D01*
X41270Y787010D01*
X41256Y786621D01*
X41232Y786232D01*
X41199Y785844D01*
X41156Y785457D01*
X41103Y785071D01*
X41041Y784686D01*
X40970Y784303D01*
X40889Y783922D01*
X40799Y783543D01*
X40700Y783166D01*
X40591Y782792D01*
X40474Y782420D01*
X40347Y782052D01*
X40211Y781687D01*
X40067Y781325D01*
X39913Y780967D01*
X39751Y780613D01*
X39580Y780262D01*
X39401Y779917D01*
X39213Y779575D01*
X39016Y779239D01*
X38812Y778907D01*
X38600Y778580D01*
X38379Y778259D01*
X38151Y777943D01*
X37915Y777633D01*
X37672Y777329D01*
X37421Y777031D01*
X37163Y776739D01*
X36897Y776454D01*
X36625Y776175D01*
X36346Y775903D01*
X36061Y775637D01*
X35769Y775379D01*
X35471Y775128D01*
X35167Y774885D01*
X34857Y774649D01*
X34541Y774421D01*
X34220Y774200D01*
X33893Y773988D01*
X33561Y773784D01*
X33225Y773587D01*
X32883Y773399D01*
X32538Y773220D01*
X32187Y773049D01*
X31833Y772887D01*
X31475Y772733D01*
X31113Y772589D01*
X30748Y772453D01*
X30380Y772326D01*
X30008Y772209D01*
X29634Y772100D01*
X29257Y772001D01*
X28878Y771911D01*
X28497Y771830D01*
X28114Y771759D01*
X27729Y771697D01*
X27343Y771644D01*
X26956Y771601D01*
X26568Y771568D01*
X26179Y771544D01*
X25790Y771530D01*
X25400Y771525D01*
X25010Y771530D01*
X24621Y771544D01*
X24232Y771568D01*
X23844Y771601D01*
X23457Y771644D01*
X23071Y771697D01*
X22686Y771759D01*
X22303Y771830D01*
X21922Y771911D01*
X21543Y772001D01*
X21166Y772100D01*
X20792Y772209D01*
X20420Y772326D01*
X20052Y772453D01*
X19687Y772589D01*
X19325Y772733D01*
X18967Y772887D01*
X18613Y773049D01*
X18262Y773220D01*
X17917Y773399D01*
X17575Y773587D01*
X17239Y773784D01*
X16907Y773988D01*
X16580Y774200D01*
X16259Y774421D01*
X15943Y774649D01*
X15633Y774885D01*
X15329Y775128D01*
X15031Y775379D01*
X14739Y775637D01*
X14454Y775903D01*
X14175Y776175D01*
X13903Y776454D01*
X13637Y776739D01*
X13379Y777031D01*
X13128Y777329D01*
X12885Y777633D01*
X12649Y777943D01*
X12421Y778259D01*
X12200Y778580D01*
X11988Y778907D01*
X11784Y779239D01*
X11587Y779575D01*
X11399Y779917D01*
X11220Y780262D01*
X11049Y780613D01*
X10887Y780967D01*
X10733Y781325D01*
X10589Y781687D01*
X10453Y782052D01*
X10326Y782420D01*
X10209Y782792D01*
X10100Y783166D01*
X10001Y783543D01*
X9911Y783922D01*
X9830Y784303D01*
X9759Y784686D01*
X9697Y785071D01*
X9644Y785457D01*
X9601Y785844D01*
X9568Y786232D01*
X9544Y786621D01*
X9530Y787010D01*
X9525Y787400D01*
X958723Y787400D02*
X958728Y787790D01*
X958742Y788179D01*
X958766Y788568D01*
X958799Y788956D01*
X958842Y789343D01*
X958895Y789729D01*
X958957Y790114D01*
X959028Y790497D01*
X959109Y790878D01*
X959199Y791257D01*
X959298Y791634D01*
X959407Y792008D01*
X959524Y792380D01*
X959651Y792748D01*
X959787Y793113D01*
X959931Y793475D01*
X960085Y793833D01*
X960247Y794187D01*
X960418Y794538D01*
X960597Y794883D01*
X960785Y795225D01*
X960982Y795561D01*
X961186Y795893D01*
X961398Y796220D01*
X961619Y796541D01*
X961847Y796857D01*
X962083Y797167D01*
X962326Y797471D01*
X962577Y797769D01*
X962835Y798061D01*
X963101Y798346D01*
X963373Y798625D01*
X963652Y798897D01*
X963937Y799163D01*
X964229Y799421D01*
X964527Y799672D01*
X964831Y799915D01*
X965141Y800151D01*
X965457Y800379D01*
X965778Y800600D01*
X966105Y800812D01*
X966437Y801016D01*
X966773Y801213D01*
X967115Y801401D01*
X967460Y801580D01*
X967811Y801751D01*
X968165Y801913D01*
X968523Y802067D01*
X968885Y802211D01*
X969250Y802347D01*
X969618Y802474D01*
X969990Y802591D01*
X970364Y802700D01*
X970741Y802799D01*
X971120Y802889D01*
X971501Y802970D01*
X971884Y803041D01*
X972269Y803103D01*
X972655Y803156D01*
X973042Y803199D01*
X973430Y803232D01*
X973819Y803256D01*
X974208Y803270D01*
X974598Y803275D01*
X974988Y803270D01*
X975377Y803256D01*
X975766Y803232D01*
X976154Y803199D01*
X976541Y803156D01*
X976927Y803103D01*
X977312Y803041D01*
X977695Y802970D01*
X978076Y802889D01*
X978455Y802799D01*
X978832Y802700D01*
X979206Y802591D01*
X979578Y802474D01*
X979946Y802347D01*
X980311Y802211D01*
X980673Y802067D01*
X981031Y801913D01*
X981385Y801751D01*
X981736Y801580D01*
X982081Y801401D01*
X982423Y801213D01*
X982759Y801016D01*
X983091Y800812D01*
X983418Y800600D01*
X983739Y800379D01*
X984055Y800151D01*
X984365Y799915D01*
X984669Y799672D01*
X984967Y799421D01*
X985259Y799163D01*
X985544Y798897D01*
X985823Y798625D01*
X986095Y798346D01*
X986361Y798061D01*
X986619Y797769D01*
X986870Y797471D01*
X987113Y797167D01*
X987349Y796857D01*
X987577Y796541D01*
X987798Y796220D01*
X988010Y795893D01*
X988214Y795561D01*
X988411Y795225D01*
X988599Y794883D01*
X988778Y794538D01*
X988949Y794187D01*
X989111Y793833D01*
X989265Y793475D01*
X989409Y793113D01*
X989545Y792748D01*
X989672Y792380D01*
X989789Y792008D01*
X989898Y791634D01*
X989997Y791257D01*
X990087Y790878D01*
X990168Y790497D01*
X990239Y790114D01*
X990301Y789729D01*
X990354Y789343D01*
X990397Y788956D01*
X990430Y788568D01*
X990454Y788179D01*
X990468Y787790D01*
X990473Y787400D01*
X990468Y787010D01*
X990454Y786621D01*
X990430Y786232D01*
X990397Y785844D01*
X990354Y785457D01*
X990301Y785071D01*
X990239Y784686D01*
X990168Y784303D01*
X990087Y783922D01*
X989997Y783543D01*
X989898Y783166D01*
X989789Y782792D01*
X989672Y782420D01*
X989545Y782052D01*
X989409Y781687D01*
X989265Y781325D01*
X989111Y780967D01*
X988949Y780613D01*
X988778Y780262D01*
X988599Y779917D01*
X988411Y779575D01*
X988214Y779239D01*
X988010Y778907D01*
X987798Y778580D01*
X987577Y778259D01*
X987349Y777943D01*
X987113Y777633D01*
X986870Y777329D01*
X986619Y777031D01*
X986361Y776739D01*
X986095Y776454D01*
X985823Y776175D01*
X985544Y775903D01*
X985259Y775637D01*
X984967Y775379D01*
X984669Y775128D01*
X984365Y774885D01*
X984055Y774649D01*
X983739Y774421D01*
X983418Y774200D01*
X983091Y773988D01*
X982759Y773784D01*
X982423Y773587D01*
X982081Y773399D01*
X981736Y773220D01*
X981385Y773049D01*
X981031Y772887D01*
X980673Y772733D01*
X980311Y772589D01*
X979946Y772453D01*
X979578Y772326D01*
X979206Y772209D01*
X978832Y772100D01*
X978455Y772001D01*
X978076Y771911D01*
X977695Y771830D01*
X977312Y771759D01*
X976927Y771697D01*
X976541Y771644D01*
X976154Y771601D01*
X975766Y771568D01*
X975377Y771544D01*
X974988Y771530D01*
X974598Y771525D01*
X974208Y771530D01*
X973819Y771544D01*
X973430Y771568D01*
X973042Y771601D01*
X972655Y771644D01*
X972269Y771697D01*
X971884Y771759D01*
X971501Y771830D01*
X971120Y771911D01*
X970741Y772001D01*
X970364Y772100D01*
X969990Y772209D01*
X969618Y772326D01*
X969250Y772453D01*
X968885Y772589D01*
X968523Y772733D01*
X968165Y772887D01*
X967811Y773049D01*
X967460Y773220D01*
X967115Y773399D01*
X966773Y773587D01*
X966437Y773784D01*
X966105Y773988D01*
X965778Y774200D01*
X965457Y774421D01*
X965141Y774649D01*
X964831Y774885D01*
X964527Y775128D01*
X964229Y775379D01*
X963937Y775637D01*
X963652Y775903D01*
X963373Y776175D01*
X963101Y776454D01*
X962835Y776739D01*
X962577Y777031D01*
X962326Y777329D01*
X962083Y777633D01*
X961847Y777943D01*
X961619Y778259D01*
X961398Y778580D01*
X961186Y778907D01*
X960982Y779239D01*
X960785Y779575D01*
X960597Y779917D01*
X960418Y780262D01*
X960247Y780613D01*
X960085Y780967D01*
X959931Y781325D01*
X959787Y781687D01*
X959651Y782052D01*
X959524Y782420D01*
X959407Y782792D01*
X959298Y783166D01*
X959199Y783543D01*
X959109Y783922D01*
X959028Y784303D01*
X958957Y784686D01*
X958895Y785071D01*
X958842Y785457D01*
X958799Y785844D01*
X958766Y786232D01*
X958742Y786621D01*
X958728Y787010D01*
X958723Y787400D01*
X958723Y980440D02*
X958728Y980830D01*
X958742Y981219D01*
X958766Y981608D01*
X958799Y981996D01*
X958842Y982383D01*
X958895Y982769D01*
X958957Y983154D01*
X959028Y983537D01*
X959109Y983918D01*
X959199Y984297D01*
X959298Y984674D01*
X959407Y985048D01*
X959524Y985420D01*
X959651Y985788D01*
X959787Y986153D01*
X959931Y986515D01*
X960085Y986873D01*
X960247Y987227D01*
X960418Y987578D01*
X960597Y987923D01*
X960785Y988265D01*
X960982Y988601D01*
X961186Y988933D01*
X961398Y989260D01*
X961619Y989581D01*
X961847Y989897D01*
X962083Y990207D01*
X962326Y990511D01*
X962577Y990809D01*
X962835Y991101D01*
X963101Y991386D01*
X963373Y991665D01*
X963652Y991937D01*
X963937Y992203D01*
X964229Y992461D01*
X964527Y992712D01*
X964831Y992955D01*
X965141Y993191D01*
X965457Y993419D01*
X965778Y993640D01*
X966105Y993852D01*
X966437Y994056D01*
X966773Y994253D01*
X967115Y994441D01*
X967460Y994620D01*
X967811Y994791D01*
X968165Y994953D01*
X968523Y995107D01*
X968885Y995251D01*
X969250Y995387D01*
X969618Y995514D01*
X969990Y995631D01*
X970364Y995740D01*
X970741Y995839D01*
X971120Y995929D01*
X971501Y996010D01*
X971884Y996081D01*
X972269Y996143D01*
X972655Y996196D01*
X973042Y996239D01*
X973430Y996272D01*
X973819Y996296D01*
X974208Y996310D01*
X974598Y996315D01*
X974988Y996310D01*
X975377Y996296D01*
X975766Y996272D01*
X976154Y996239D01*
X976541Y996196D01*
X976927Y996143D01*
X977312Y996081D01*
X977695Y996010D01*
X978076Y995929D01*
X978455Y995839D01*
X978832Y995740D01*
X979206Y995631D01*
X979578Y995514D01*
X979946Y995387D01*
X980311Y995251D01*
X980673Y995107D01*
X981031Y994953D01*
X981385Y994791D01*
X981736Y994620D01*
X982081Y994441D01*
X982423Y994253D01*
X982759Y994056D01*
X983091Y993852D01*
X983418Y993640D01*
X983739Y993419D01*
X984055Y993191D01*
X984365Y992955D01*
X984669Y992712D01*
X984967Y992461D01*
X985259Y992203D01*
X985544Y991937D01*
X985823Y991665D01*
X986095Y991386D01*
X986361Y991101D01*
X986619Y990809D01*
X986870Y990511D01*
X987113Y990207D01*
X987349Y989897D01*
X987577Y989581D01*
X987798Y989260D01*
X988010Y988933D01*
X988214Y988601D01*
X988411Y988265D01*
X988599Y987923D01*
X988778Y987578D01*
X988949Y987227D01*
X989111Y986873D01*
X989265Y986515D01*
X989409Y986153D01*
X989545Y985788D01*
X989672Y985420D01*
X989789Y985048D01*
X989898Y984674D01*
X989997Y984297D01*
X990087Y983918D01*
X990168Y983537D01*
X990239Y983154D01*
X990301Y982769D01*
X990354Y982383D01*
X990397Y981996D01*
X990430Y981608D01*
X990454Y981219D01*
X990468Y980830D01*
X990473Y980440D01*
X990468Y980050D01*
X990454Y979661D01*
X990430Y979272D01*
X990397Y978884D01*
X990354Y978497D01*
X990301Y978111D01*
X990239Y977726D01*
X990168Y977343D01*
X990087Y976962D01*
X989997Y976583D01*
X989898Y976206D01*
X989789Y975832D01*
X989672Y975460D01*
X989545Y975092D01*
X989409Y974727D01*
X989265Y974365D01*
X989111Y974007D01*
X988949Y973653D01*
X988778Y973302D01*
X988599Y972957D01*
X988411Y972615D01*
X988214Y972279D01*
X988010Y971947D01*
X987798Y971620D01*
X987577Y971299D01*
X987349Y970983D01*
X987113Y970673D01*
X986870Y970369D01*
X986619Y970071D01*
X986361Y969779D01*
X986095Y969494D01*
X985823Y969215D01*
X985544Y968943D01*
X985259Y968677D01*
X984967Y968419D01*
X984669Y968168D01*
X984365Y967925D01*
X984055Y967689D01*
X983739Y967461D01*
X983418Y967240D01*
X983091Y967028D01*
X982759Y966824D01*
X982423Y966627D01*
X982081Y966439D01*
X981736Y966260D01*
X981385Y966089D01*
X981031Y965927D01*
X980673Y965773D01*
X980311Y965629D01*
X979946Y965493D01*
X979578Y965366D01*
X979206Y965249D01*
X978832Y965140D01*
X978455Y965041D01*
X978076Y964951D01*
X977695Y964870D01*
X977312Y964799D01*
X976927Y964737D01*
X976541Y964684D01*
X976154Y964641D01*
X975766Y964608D01*
X975377Y964584D01*
X974988Y964570D01*
X974598Y964565D01*
X974208Y964570D01*
X973819Y964584D01*
X973430Y964608D01*
X973042Y964641D01*
X972655Y964684D01*
X972269Y964737D01*
X971884Y964799D01*
X971501Y964870D01*
X971120Y964951D01*
X970741Y965041D01*
X970364Y965140D01*
X969990Y965249D01*
X969618Y965366D01*
X969250Y965493D01*
X968885Y965629D01*
X968523Y965773D01*
X968165Y965927D01*
X967811Y966089D01*
X967460Y966260D01*
X967115Y966439D01*
X966773Y966627D01*
X966437Y966824D01*
X966105Y967028D01*
X965778Y967240D01*
X965457Y967461D01*
X965141Y967689D01*
X964831Y967925D01*
X964527Y968168D01*
X964229Y968419D01*
X963937Y968677D01*
X963652Y968943D01*
X963373Y969215D01*
X963101Y969494D01*
X962835Y969779D01*
X962577Y970071D01*
X962326Y970369D01*
X962083Y970673D01*
X961847Y970983D01*
X961619Y971299D01*
X961398Y971620D01*
X961186Y971947D01*
X960982Y972279D01*
X960785Y972615D01*
X960597Y972957D01*
X960418Y973302D01*
X960247Y973653D01*
X960085Y974007D01*
X959931Y974365D01*
X959787Y974727D01*
X959651Y975092D01*
X959524Y975460D01*
X959407Y975832D01*
X959298Y976206D01*
X959199Y976583D01*
X959109Y976962D01*
X959028Y977343D01*
X958957Y977726D01*
X958895Y978111D01*
X958842Y978497D01*
X958799Y978884D01*
X958766Y979272D01*
X958742Y979661D01*
X958728Y980050D01*
X958723Y980440D01*
D11*
X53670Y722930D03*
X53670Y716430D03*
X53670Y709930D03*
X53670Y703430D03*
X53670Y696930D03*
D12*
X53670Y734930D03*
X53670Y684930D03*
D13*
X26670Y744930D03*
X26670Y674930D03*
D14*
X25400Y381000D03*
X25400Y406400D03*
D15*
X38100Y558400D03*
X38100Y533400D03*
X38100Y508400D03*
D14*
X127000Y596900D03*
X152400Y596900D03*
X177800Y596900D03*
X203200Y596900D03*
D16*
X101600Y723900D03*
X101600Y749300D03*
X152400Y660400D03*
X152400Y762000D03*
D14*
X266700Y533400D03*
X266700Y508000D03*
X266700Y482600D03*
X266700Y457200D03*
X266700Y431800D03*
D17*
X304800Y660800D03*
X304800Y710800D03*
D16*
X203200Y660400D03*
X203200Y762000D03*
D14*
X127000Y279400D03*
X127000Y254000D03*
X127000Y228600D03*
X127000Y203200D03*
X127000Y177800D03*
X127000Y152400D03*
X127000Y127000D03*
D18*
X792988Y673100D02*
X807212Y673100D01*
X807212Y647700D02*
X792988Y647700D01*
X792988Y622300D02*
X807212Y622300D01*
X807212Y596900D02*
X792988Y596900D01*
X792988Y571500D02*
X807212Y571500D01*
X807212Y546100D02*
X792988Y546100D01*
X792988Y520700D02*
X807212Y520700D01*
X807212Y495300D02*
X792988Y495300D01*
X792988Y469900D02*
X807212Y469900D01*
X807212Y444500D02*
X792988Y444500D01*
X792988Y419100D02*
X807212Y419100D01*
X807212Y393700D02*
X792988Y393700D01*
X792988Y368300D02*
X807212Y368300D01*
X807212Y342900D02*
X792988Y342900D01*
X869188Y342900D02*
X883412Y342900D01*
X883412Y368300D02*
X869188Y368300D01*
X869188Y393700D02*
X883412Y393700D01*
X883412Y419100D02*
X869188Y419100D01*
X869188Y444500D02*
X883412Y444500D01*
X883412Y469900D02*
X869188Y469900D01*
X869188Y495300D02*
X883412Y495300D01*
X883412Y520700D02*
X869188Y520700D01*
X869188Y546100D02*
X883412Y546100D01*
X883412Y571500D02*
X869188Y571500D01*
X869188Y596900D02*
X883412Y596900D01*
X883412Y622300D02*
X869188Y622300D01*
X869188Y647700D02*
X883412Y647700D01*
X883412Y673100D02*
X869188Y673100D01*
D16*
X698500Y241300D03*
X698500Y342900D03*
D19*
X736600Y342900D03*
X736600Y241300D03*
X952500Y279400D03*
X952500Y254000D03*
D20*
X927100Y304800D03*
X825500Y304800D03*
D17*
X775100Y762000D03*
X825100Y762000D03*
D19*
X749300Y800100D03*
X749300Y698500D03*
D18*
X464312Y838200D02*
X450088Y838200D01*
X450088Y812800D02*
X464312Y812800D01*
X464312Y685800D02*
X450088Y685800D01*
X526288Y685800D02*
X540512Y685800D01*
X464312Y787400D02*
X450088Y787400D01*
X450088Y762000D02*
X464312Y762000D01*
X464312Y711200D02*
X450088Y711200D01*
X450088Y736600D02*
X464312Y736600D01*
X526288Y711200D02*
X540512Y711200D01*
X540512Y736600D02*
X526288Y736600D01*
X526288Y762000D02*
X540512Y762000D01*
X540512Y787400D02*
X526288Y787400D01*
X526288Y812800D02*
X540512Y812800D01*
X540512Y838200D02*
X526288Y838200D01*
D14*
X406400Y723900D03*
X406400Y749300D03*
X406400Y660400D03*
X406400Y685800D03*
D21*
X279400Y38100D03*
X254000Y38100D03*
X279400Y63500D03*
X254000Y63500D03*
X279400Y88900D03*
X254000Y88900D03*
X279400Y114300D03*
X254000Y114300D03*
X279400Y139700D03*
X254000Y139700D03*
X279400Y165100D03*
X254000Y165100D03*
X279400Y190500D03*
X254000Y190500D03*
X279400Y215900D03*
X254000Y215900D03*
X279400Y241300D03*
X254000Y241300D03*
X279400Y266700D03*
X254000Y266700D03*
X279400Y292100D03*
X254000Y292100D03*
D16*
X622300Y241300D03*
X622300Y342900D03*
X660400Y241300D03*
X660400Y342900D03*
D18*
X438912Y584200D02*
X424688Y584200D01*
X424688Y558800D02*
X438912Y558800D01*
X438912Y533400D02*
X424688Y533400D01*
X424688Y508000D02*
X438912Y508000D01*
X438912Y482600D02*
X424688Y482600D01*
X424688Y457200D02*
X438912Y457200D01*
X438912Y431800D02*
X424688Y431800D01*
X424688Y406400D02*
X438912Y406400D01*
X438912Y381000D02*
X424688Y381000D01*
X424688Y355600D02*
X438912Y355600D01*
X438912Y330200D02*
X424688Y330200D01*
X424688Y304800D02*
X438912Y304800D01*
X438912Y279400D02*
X424688Y279400D01*
X424688Y254000D02*
X438912Y254000D01*
X500888Y254000D02*
X515112Y254000D01*
X515112Y279400D02*
X500888Y279400D01*
X500888Y304800D02*
X515112Y304800D01*
X515112Y330200D02*
X500888Y330200D01*
X500888Y355600D02*
X515112Y355600D01*
X515112Y381000D02*
X500888Y381000D01*
X500888Y406400D02*
X515112Y406400D01*
X515112Y431800D02*
X500888Y431800D01*
X500888Y457200D02*
X515112Y457200D01*
X515112Y482600D02*
X500888Y482600D01*
X500888Y508000D02*
X515112Y508000D01*
X515112Y533400D02*
X500888Y533400D01*
X500888Y558800D02*
X515112Y558800D01*
X515112Y584200D02*
X500888Y584200D01*
D19*
X571500Y584200D03*
X571500Y558800D03*
D20*
X596900Y482600D03*
X571500Y482600D03*
D22*
X571500Y393700D03*
D23*
X622300Y393700D03*
D14*
X215900Y88900D03*
X203200Y215900D03*
X317500Y241300D03*
X723900Y673100D03*
X723900Y635000D03*
X723900Y596900D03*
X723900Y558800D03*
X723900Y520700D03*
X723900Y482600D03*
X723900Y444500D03*
X927100Y698500D03*
X927100Y660400D03*
X927100Y622300D03*
X50800Y266700D03*
X50800Y241300D03*
X50800Y215900D03*
X50800Y190500D03*
X50800Y165100D03*
X50800Y139700D03*
X508000Y25400D03*
X508000Y50800D03*
X508000Y76200D03*
X508000Y101600D03*
X508000Y127000D03*
X508000Y152400D03*
X508000Y177800D03*
X508000Y203200D03*
X533400Y25400D03*
X533400Y50800D03*
X533400Y76200D03*
X533400Y101600D03*
X533400Y127000D03*
X533400Y152400D03*
X533400Y177800D03*
X533400Y203200D03*
X558800Y25400D03*
X558800Y50800D03*
X558800Y76200D03*
X558800Y101600D03*
X558800Y127000D03*
X558800Y152400D03*
X558800Y177800D03*
X558800Y203200D03*
X584200Y25400D03*
X584200Y50800D03*
X584200Y76200D03*
X584200Y101600D03*
X584200Y127000D03*
X584200Y152400D03*
X584200Y177800D03*
X584200Y203200D03*
X609600Y25400D03*
X609600Y50800D03*
X609600Y76200D03*
X609600Y101600D03*
X609600Y127000D03*
X609600Y152400D03*
X609600Y177800D03*
X609600Y203200D03*
X838200Y25400D03*
X838200Y50800D03*
X838200Y76200D03*
X838200Y101600D03*
X838200Y127000D03*
X838200Y152400D03*
X838200Y177800D03*
X838200Y203200D03*
X431800Y25400D03*
X431800Y50800D03*
X431800Y76200D03*
X431800Y101600D03*
X431800Y127000D03*
X431800Y152400D03*
X431800Y177800D03*
X431800Y203200D03*
X457200Y25400D03*
X457200Y50800D03*
X457200Y76200D03*
X457200Y101600D03*
X457200Y127000D03*
X457200Y152400D03*
X457200Y177800D03*
X457200Y203200D03*
X863600Y25400D03*
X863600Y50800D03*
X863600Y76200D03*
X863600Y101600D03*
X863600Y127000D03*
X863600Y152400D03*
X863600Y177800D03*
X863600Y203200D03*
X660400Y25400D03*
X660400Y50800D03*
X660400Y76200D03*
X660400Y101600D03*
X660400Y127000D03*
X660400Y152400D03*
X660400Y177800D03*
X660400Y203200D03*
X685800Y25400D03*
X685800Y50800D03*
X685800Y76200D03*
X685800Y101600D03*
X685800Y127000D03*
X685800Y152400D03*
X685800Y177800D03*
X685800Y203200D03*
X711200Y25400D03*
X711200Y50800D03*
X711200Y76200D03*
X711200Y101600D03*
X711200Y127000D03*
X711200Y152400D03*
X711200Y177800D03*
X711200Y203200D03*
X736600Y25400D03*
X736600Y50800D03*
X736600Y76200D03*
X736600Y101600D03*
X736600Y127000D03*
X736600Y152400D03*
X736600Y177800D03*
X736600Y203200D03*
X762000Y25400D03*
X762000Y50800D03*
X762000Y76200D03*
X762000Y101600D03*
X762000Y127000D03*
X762000Y152400D03*
X762000Y177800D03*
X762000Y203200D03*
D19*
X190500Y431800D03*
X190500Y406400D03*
D24*
X38100Y558400D02*
X38100Y647700D01*
X76200Y685800D01*
X76200Y711200D01*
X64470Y722930D01*
X53670Y722930D01*
X431800Y406400D02*
X457200Y431800D01*
X469900Y431800D01*
X469784Y431916D01*
D25*
X469784Y431916D03*
X482716Y418984D03*
D24*
X482716Y380884D01*
X508000Y355600D01*
X48964Y746292D02*
X42308Y739636D01*
X48964Y746292D02*
X58376Y746292D01*
X198571Y773176D02*
X207829Y773176D01*
X214376Y766629D01*
X45237Y697366D02*
X42308Y700295D01*
X42308Y739636D01*
X214376Y751855D02*
X214376Y766629D01*
X66544Y738124D02*
X58376Y746292D01*
X66544Y738124D02*
X163519Y738124D01*
X198571Y773176D01*
X53670Y696930D02*
X53234Y697366D01*
X45237Y697366D01*
X190500Y38100D02*
X254000Y38100D01*
D25*
X190500Y38100D03*
D24*
X190500Y406400D02*
X266700Y482600D01*
D25*
X114300Y431800D03*
D24*
X88900Y406400D01*
X50800Y406400D01*
X25400Y381000D01*
X127000Y685800D02*
X148321Y685800D01*
D25*
X127000Y685800D03*
D24*
X148321Y685800D02*
X214376Y751855D01*
X38100Y508400D02*
X38100Y419100D01*
X25400Y406400D01*
X38100Y533400D02*
X63500Y558800D01*
X88900Y558800D01*
D25*
X88900Y558800D03*
X177800Y571500D03*
D24*
X177800Y596900D01*
X177800Y698500D01*
X292100Y812800D01*
X457200Y812800D01*
X499379Y812800D02*
X510555Y823976D01*
X871724Y823976D01*
X977900Y717800D02*
X977900Y190500D01*
X876300Y190500D01*
X863600Y203200D01*
X977900Y717800D02*
X871724Y823976D01*
X499379Y812800D02*
X457200Y812800D01*
X863600Y203200D02*
X863600Y177800D01*
X863600Y152400D01*
X863600Y127000D01*
X863600Y101600D01*
X863600Y76200D01*
X863600Y50800D01*
X863600Y25400D01*
X660400Y342900D02*
X622300Y342900D01*
X660400Y342900D02*
X698500Y342900D01*
X736600Y342900D01*
X762000Y368300D01*
X762000Y444500D01*
X787400Y469900D01*
X800100Y469900D01*
X825500Y469900D01*
X876300Y419100D01*
X736600Y342900D02*
X800100Y279400D01*
X800100Y228600D01*
X825500Y203200D01*
X838200Y203200D01*
X622300Y342900D02*
X622300Y368300D01*
X647700Y393700D01*
X647700Y431800D01*
X596900Y482600D01*
X596900Y571500D01*
X584200Y584200D01*
X571500Y584200D01*
X508000Y584200D01*
X508000Y660400D01*
X533400Y685800D01*
X127000Y596900D02*
X101600Y622300D01*
X101600Y723900D01*
X177800Y723900D01*
X203200Y749300D01*
X203200Y762000D01*
X127000Y596900D02*
X215900Y508000D01*
X266700Y508000D01*
X215900Y508000D02*
X215900Y457200D01*
X190500Y431800D01*
X520700Y685800D02*
X533400Y685800D01*
X520700Y685800D02*
X495300Y711200D01*
X495300Y800100D01*
X508000Y812800D01*
X533400Y812800D01*
X635000Y812800D01*
X749300Y698500D01*
X330200Y508000D02*
X266700Y508000D01*
X454717Y584200D02*
X508000Y584200D01*
X454717Y584200D02*
X443541Y573024D01*
X395224Y573024D01*
X330200Y508000D01*
X596900Y317500D02*
X622300Y342900D01*
X596900Y317500D02*
X558800Y317500D01*
D25*
X558800Y317500D03*
X469900Y292100D03*
D24*
X457200Y279400D01*
X431800Y279400D01*
X355600Y38100D02*
X279400Y38100D01*
X355600Y38100D02*
X406400Y88900D01*
X406400Y254000D02*
X431800Y279400D01*
X406400Y254000D02*
X406400Y88900D01*
X368300Y215900D02*
X431800Y279400D01*
X139700Y254000D02*
X127000Y254000D01*
X139700Y254000D02*
X152400Y266700D01*
D25*
X152400Y266700D03*
X228600Y254000D03*
D24*
X241300Y266700D01*
X254000Y266700D01*
X368300Y215900D02*
X368300Y203200D01*
X355600Y190500D01*
X304800Y190500D01*
X279400Y215900D01*
D25*
X139700Y381000D03*
D24*
X165100Y406400D01*
D25*
X123444Y304546D03*
D24*
X123444Y294882D01*
X113538Y284976D01*
X113538Y267462D01*
X127000Y254000D01*
X152400Y457200D02*
X215900Y457200D01*
X152400Y457200D02*
X152400Y419100D01*
X165100Y406400D01*
X838200Y203200D02*
X838200Y177800D01*
X838200Y152400D01*
X838200Y127000D01*
X838200Y101600D01*
X838200Y76200D01*
X838200Y50800D01*
X838200Y25400D01*
X139700Y749300D02*
X152400Y762000D01*
X139700Y749300D02*
X101600Y749300D01*
X381400Y584200D02*
X431800Y584200D01*
X381400Y584200D02*
X305000Y660600D01*
X304800Y660800D01*
X304800Y571500D01*
X266700Y533400D01*
X203200Y660400D02*
X203400Y660600D01*
X305000Y660600D01*
X215900Y177800D02*
X254000Y139700D01*
X215900Y177800D02*
X177800Y177800D01*
X177800Y368300D02*
X266700Y457200D01*
X177800Y368300D02*
X177800Y177800D01*
X266700Y457200D02*
X292100Y482600D01*
X406400Y482600D02*
X431800Y508000D01*
X406400Y482600D02*
X292100Y482600D01*
X50800Y241300D02*
X25400Y241300D01*
X12700Y228600D01*
X12700Y127000D02*
X25400Y114300D01*
X88900Y114300D01*
X88900Y190500D01*
X101600Y203200D01*
X127000Y203200D01*
X12700Y228600D02*
X12700Y127000D01*
X469900Y571500D02*
X508000Y533400D01*
D25*
X469900Y571500D03*
D24*
X63500Y228600D02*
X50800Y215900D01*
X63500Y228600D02*
X127000Y228600D01*
X121920Y228600D01*
X16510Y334010D01*
X38100Y355600D02*
X152400Y355600D01*
X38100Y355600D02*
X16510Y334010D01*
D25*
X152400Y355600D03*
D24*
X165100Y190500D02*
X127000Y152400D01*
X165100Y190500D02*
X165100Y342900D01*
D25*
X165100Y342900D03*
D24*
X685800Y241300D02*
X698500Y241300D01*
X622300Y304800D02*
X508000Y304800D01*
X622300Y304800D02*
X685800Y241300D01*
X698500Y241300D02*
X711200Y241300D01*
X723900Y228600D01*
D25*
X723900Y228600D03*
X711200Y355600D03*
D24*
X723900Y368300D01*
X723900Y393700D01*
D25*
X723900Y393700D03*
X774700Y393700D03*
D24*
X800100Y393700D01*
X673100Y304800D02*
X736600Y241300D01*
D25*
X673100Y304800D03*
X584200Y342900D03*
D24*
X520700Y342900D01*
X508000Y330200D01*
D25*
X774700Y368300D03*
D24*
X800100Y368300D01*
X775100Y774300D02*
X749300Y800100D01*
X775100Y774300D02*
X775100Y762000D01*
X775100Y698100D01*
X800100Y673100D01*
X876300Y495300D02*
X952500Y419100D01*
X952500Y279400D01*
X952500Y254000D02*
X876300Y254000D01*
X825500Y304800D01*
X596900Y762000D02*
X533400Y762000D01*
X596900Y762000D02*
X685800Y673100D01*
X685800Y660400D01*
D25*
X685800Y660400D03*
X838200Y596900D03*
D24*
X863600Y571500D01*
X876300Y571500D01*
X584200Y736600D02*
X533400Y736600D01*
X584200Y736600D02*
X685800Y635000D01*
D25*
X685800Y635000D03*
X838200Y571500D03*
D24*
X850900Y571500D01*
X876300Y546100D01*
X571500Y711200D02*
X533400Y711200D01*
X571500Y711200D02*
X673100Y609600D01*
D25*
X673100Y609600D03*
X838200Y546100D03*
D24*
X863600Y520700D01*
X876300Y520700D01*
X596900Y787400D02*
X533400Y787400D01*
X596900Y787400D02*
X698500Y685800D01*
D25*
X698500Y685800D03*
X850900Y635000D03*
D24*
X858012Y627888D01*
X858012Y617671D01*
X876300Y599383D01*
X876300Y596900D01*
X444500Y787400D02*
X406400Y749300D01*
X444500Y787400D02*
X457200Y787400D01*
X457200Y762000D02*
X419100Y723900D01*
X406400Y723900D01*
X406400Y685800D02*
X457200Y736600D01*
X457200Y711200D02*
X406400Y660400D01*
X546100Y241300D02*
X622300Y241300D01*
X546100Y241300D02*
X508000Y279400D01*
X171462Y12700D02*
X152412Y31750D01*
X171462Y12700D02*
X342900Y12700D01*
X254000Y63500D02*
X184162Y63500D01*
X152412Y31750D01*
D25*
X342900Y12700D03*
X368300Y165100D03*
D24*
X368300Y190500D01*
X393700Y215900D01*
D25*
X393700Y215900D03*
X469900Y254000D03*
D24*
X495300Y279400D01*
X508000Y279400D01*
X647700Y228600D02*
X660400Y241300D01*
X533400Y228600D02*
X508000Y254000D01*
X533400Y228600D02*
X647700Y228600D01*
X355600Y139700D02*
X279400Y63500D01*
X355600Y139700D02*
X393700Y139700D01*
D25*
X393700Y139700D03*
X419100Y215900D03*
D24*
X431800Y228600D01*
X508000Y228600D01*
X508000Y254000D01*
X368300Y495300D02*
X431800Y558800D01*
X368300Y495300D02*
X330200Y495300D01*
D25*
X330200Y495300D03*
X317500Y444500D03*
D24*
X189738Y210324D02*
X197624Y202438D01*
X203962Y202438D01*
X215900Y190500D01*
X189738Y272276D02*
X279400Y361938D01*
X189738Y272276D02*
X189738Y210324D01*
X215900Y190500D02*
X254000Y190500D01*
X279400Y406400D02*
X317500Y444500D01*
X279400Y406400D02*
X279400Y361938D01*
X254000Y165100D02*
X237221Y165100D01*
X218425Y183896D01*
X197104Y183896D02*
X190500Y190500D01*
X197104Y183896D02*
X218425Y183896D01*
D25*
X190500Y190500D03*
X482600Y520700D03*
D24*
X482600Y431800D01*
X431800Y381000D01*
X431800Y431800D02*
X342900Y342900D01*
X342900Y279400D01*
D25*
X342900Y279400D03*
D24*
X419100Y342900D02*
X431800Y355600D01*
X419100Y342900D02*
X368300Y342900D01*
X346340Y206640D02*
X342900Y203200D01*
X346340Y215261D02*
X368300Y237221D01*
X346340Y215261D02*
X346340Y206640D01*
X342900Y203200D02*
X343016Y203084D01*
D25*
X343016Y203084D03*
X339852Y163837D03*
D24*
X280663Y163837D01*
X279400Y165100D01*
X368300Y237221D02*
X368300Y342900D01*
X431800Y533400D02*
X444500Y533400D01*
X457200Y520700D01*
X443541Y471424D02*
X420624Y471424D01*
X330200Y381000D01*
X457200Y485083D02*
X457200Y520700D01*
X457200Y485083D02*
X443541Y471424D01*
X330200Y254000D02*
X342900Y241300D01*
D25*
X342900Y241300D03*
D24*
X330200Y254000D02*
X330200Y381000D01*
X254000Y114300D02*
X152400Y114300D01*
X127000Y88900D01*
X76200Y88900D01*
D25*
X76200Y88900D03*
X76200Y330200D03*
D24*
X431800Y457200D02*
X439928Y465328D01*
X446066Y465328D01*
X469900Y489162D01*
X469900Y546100D01*
D25*
X469900Y546100D03*
D24*
X127000Y342900D02*
X126884Y343016D01*
D25*
X127000Y342900D03*
D24*
X126884Y343016D02*
X126768Y342900D01*
X88900Y342900D02*
X76200Y330200D01*
X88900Y342900D02*
X126768Y342900D01*
X266700Y431800D02*
X311404Y476504D01*
X408925Y476504D01*
X415021Y482600D02*
X431800Y482600D01*
X415021Y482600D02*
X408925Y476504D01*
X266700Y431800D02*
X254000Y419100D01*
X254000Y368300D01*
X241300Y355600D01*
D25*
X241300Y355600D03*
X266700Y330200D03*
D24*
X304800Y292100D01*
X304800Y279400D01*
D25*
X304800Y279400D03*
X368300Y101600D03*
D24*
X342900Y101600D01*
X317500Y76200D01*
D25*
X317500Y76200D03*
X304800Y139700D03*
D24*
X279400Y139700D01*
X406400Y304800D02*
X431800Y330200D01*
X406400Y304800D02*
X381000Y304800D01*
X381000Y241300D01*
X355484Y215784D02*
X355484Y203316D01*
D25*
X355484Y203316D03*
X352044Y174244D03*
D24*
X347211Y169411D02*
X348996Y167625D01*
X347211Y169411D02*
X352044Y174244D01*
X348996Y167625D02*
X348996Y158496D01*
X279400Y88900D01*
X355484Y215784D02*
X381000Y241300D01*
X317500Y241300D02*
X279400Y241300D01*
X254000Y215900D02*
X203200Y215900D01*
X215900Y88900D02*
X254000Y88900D01*
X723900Y673100D02*
X774700Y673100D01*
X800100Y647700D01*
X787400Y635000D02*
X723900Y635000D01*
X787400Y635000D02*
X800100Y622300D01*
X800100Y596900D02*
X723900Y596900D01*
X736600Y571500D02*
X723900Y558800D01*
X736600Y571500D02*
X800100Y571500D01*
X749300Y546100D02*
X723900Y520700D01*
X749300Y546100D02*
X800100Y546100D01*
X762000Y520700D02*
X723900Y482600D01*
X762000Y520700D02*
X800100Y520700D01*
X876300Y673100D02*
X901700Y698500D01*
X927100Y698500D01*
X889000Y660400D02*
X876300Y647700D01*
X889000Y660400D02*
X927100Y660400D01*
X927100Y622300D02*
X876300Y622300D01*
X609600Y203200D02*
X584200Y203200D01*
X558800Y203200D01*
X533400Y203200D01*
X508000Y203200D01*
X508000Y177800D02*
X533400Y177800D01*
X558800Y177800D01*
X584200Y177800D01*
X609600Y177800D01*
X609600Y152400D02*
X584200Y152400D01*
X558800Y152400D01*
X533400Y152400D01*
X508000Y152400D01*
X508000Y127000D02*
X558800Y127000D01*
X533400Y127000D01*
X558800Y127000D02*
X584200Y127000D01*
X609600Y127000D01*
X609600Y101600D02*
X584200Y101600D01*
X558800Y101600D01*
X533400Y101600D01*
X508000Y101600D01*
X584200Y76200D02*
X609600Y76200D01*
X584200Y76200D02*
X558800Y76200D01*
X533400Y76200D01*
X508000Y76200D01*
X508000Y50800D02*
X533400Y50800D01*
X558800Y50800D01*
X584200Y50800D01*
X609600Y50800D01*
X609600Y25400D02*
X508000Y25400D01*
X736600Y203200D02*
X762000Y203200D01*
X736600Y203200D02*
X711200Y203200D01*
X685800Y203200D01*
X660400Y203200D01*
X660400Y177800D02*
X685800Y177800D01*
X711200Y177800D01*
X736600Y177800D01*
X762000Y177800D01*
X762000Y152400D02*
X736600Y152400D01*
X711200Y152400D01*
X685800Y152400D01*
X660400Y152400D01*
X660400Y127000D02*
X685800Y127000D01*
X711200Y127000D01*
X736600Y127000D01*
X762000Y127000D01*
X762000Y101600D02*
X736600Y101600D01*
X711200Y101600D01*
X685800Y101600D01*
X660400Y101600D01*
X660400Y76200D02*
X685800Y76200D01*
X711200Y76200D01*
X736600Y76200D01*
X762000Y76200D01*
X762000Y50800D02*
X736600Y50800D01*
X711200Y50800D01*
X685800Y50800D01*
X660400Y50800D01*
X660400Y25400D02*
X685800Y25400D01*
X711200Y25400D01*
X736600Y25400D01*
X762000Y25400D01*
X508000Y381000D02*
X520700Y393700D01*
X571500Y393700D01*
X723900Y444500D02*
X774700Y495300D01*
X800100Y495300D01*
M02*
