M48
;GenerationSoftware,Autodesk,EAGLE,9.6.2*%
;CreationDate,2022-02-21T00:14:10Z*%
FMAT,2
ICI,OFF
METRIC,TZ,000.000
T8C0.508
T7C0.813
T6C0.850
T5C0.900
T4C1.000
T3C1.016
T2C1.500
T1C3.175
%
G90
M71
T1
X97460Y98044
X2540Y98044
X2540Y78740
X97460Y78740
T2
X2667Y74493
X2667Y67493
T3
X72390Y48260
X72390Y44450
X92710Y69850
X92710Y66040
X92710Y62230
X5080Y26670
X5080Y24130
X5080Y21590
X5080Y19050
X5080Y16510
X5080Y13970
X50800Y2540
X50800Y5080
X50800Y7620
X50800Y10160
X50800Y12700
X50800Y15240
X50800Y17780
X50800Y20320
X53340Y2540
X53340Y5080
X53340Y7620
X53340Y10160
X53340Y12700
X53340Y15240
X53340Y17780
X53340Y20320
X55880Y2540
X55880Y5080
X55880Y7620
X55880Y10160
X55880Y12700
X55880Y15240
X55880Y17780
X55880Y20320
X58420Y2540
X58420Y5080
X58420Y7620
X58420Y10160
X58420Y12700
X58420Y15240
X58420Y17780
X58420Y20320
X72390Y67310
X60960Y2540
X60960Y5080
X60960Y7620
X60960Y10160
X60960Y12700
X60960Y15240
X60960Y17780
X60960Y20320
X83820Y2540
X83820Y5080
X83820Y7620
X83820Y10160
X83820Y12700
X83820Y15240
X83820Y17780
X2540Y38100
X2540Y40640
X83820Y20320
X43180Y2540
X43180Y5080
X12700Y59690
X15240Y59690
X17780Y59690
X20320Y59690
X43180Y7620
X43180Y10160
X43180Y12700
X43180Y15240
X26670Y53340
X26670Y50800
X26670Y48260
X26670Y45720
X26670Y43180
X43180Y17780
X43180Y20320
X45720Y2540
X45720Y5080
X12700Y27940
X12700Y25400
X12700Y22860
X12700Y20320
X12700Y17780
X12700Y15240
X12700Y12700
X45720Y7620
X45720Y10160
X45720Y12700
X45720Y15240
X45720Y17780
X45720Y20320
X86360Y2540
X86360Y5080
X86360Y7620
X86360Y10160
X86360Y12700
X86360Y15240
X86360Y20320
X66040Y2540
X66040Y5080
X66040Y7620
X66040Y10160
X66040Y12700
X66040Y15240
X66040Y17780
X66040Y20320
X68580Y2540
X68580Y5080
X68580Y7620
X68580Y10160
X68580Y12700
X68580Y15240
X68580Y17780
X68580Y20320
X71120Y2540
X71120Y5080
X71120Y7620
X71120Y10160
X71120Y12700
X71120Y15240
X27940Y29210
X71120Y17780
X71120Y20320
X73660Y2540
X73660Y5080
X73660Y7620
X73660Y10160
X73660Y12700
X73660Y15240
X73660Y17780
X73660Y20320
X76200Y2540
X76200Y5080
X76200Y7620
X76200Y10160
X76200Y12700
X76200Y15240
X76200Y17780
X76200Y20320
X40640Y72390
X40640Y74930
X40640Y66040
X40640Y68580
X27940Y3810
X25400Y3810
X27940Y6350
X25400Y6350
X27940Y8890
X25400Y8890
X27940Y11430
X25400Y11430
X27940Y13970
X25400Y13970
X27940Y16510
X25400Y16510
X27940Y19050
X25400Y19050
X27940Y21590
X25400Y21590
X27940Y24130
X25400Y24130
X27940Y26670
X25400Y26670
X86360Y17780
X25400Y29210
X21590Y8890
X20320Y21590
X31750Y24130
X72390Y63500
X72390Y59690
X72390Y55880
X72390Y52070
T4
X30480Y71080
X82510Y76200
X77510Y76200
X30480Y66080
T5
X3810Y55840
X3810Y53340
X3810Y50840
T6
X5367Y73493
X5367Y68493
T7
X20320Y76200
X45720Y81280
X45720Y68580
X53340Y68580
X45720Y78740
X45720Y76200
X45720Y71120
X45720Y73660
X53340Y71120
X53340Y73660
X53340Y76200
X53340Y78740
X53340Y81280
X53340Y83820
X43180Y40640
X43180Y38100
X43180Y35560
X43180Y33020
X43180Y30480
X43180Y27940
X80010Y34290
X43180Y25400
X50800Y25400
X50800Y27940
X50800Y30480
X50800Y33020
X50800Y35560
X50800Y38100
X50800Y40640
X50800Y43180
X50800Y45720
X50800Y48260
X50800Y50800
X50800Y53340
X50800Y55880
X50800Y58420
X57150Y55880
X59690Y48260
X57150Y48260
X57150Y39370
X62230Y39370
X62230Y24130
X62230Y34290
X66040Y24130
X82550Y30480
X66040Y34290
X43180Y58420
X43180Y55880
X43180Y53340
X43180Y50800
X43180Y48260
X43180Y45720
X43180Y43180
X19050Y43180
X19050Y40640
X10160Y72390
X10160Y74930
X15240Y66040
X15240Y76200
X20320Y66040
X80010Y67310
X80010Y64770
X80010Y62230
X80010Y59690
X80010Y57150
X80010Y54610
X80010Y52070
X80010Y49530
X80010Y46990
X80010Y44450
X80010Y41910
X80010Y39370
X80010Y36830
X57150Y58420
X87630Y34290
X87630Y36830
X87630Y39370
X87630Y41910
X87630Y44450
X87630Y46990
X87630Y49530
X87630Y52070
X87630Y54610
X87630Y57150
X87630Y59690
X87630Y62230
X87630Y64770
X87630Y67310
X69850Y24130
X69850Y34290
X73660Y34290
X73660Y24130
X95250Y27940
X95250Y25400
X92710Y30480
X74930Y80010
X74930Y69850
X45720Y83820
T8
X48272Y41898
X19050Y3810
X11430Y43180
X12700Y68580
X8890Y55880
X17780Y57150
X55880Y31750
X46990Y29210
X15240Y26670
X22860Y25400
X13970Y38100
X12344Y30455
X46990Y57150
X15240Y35560
X16510Y34290
X72390Y22860
X71120Y35560
X72390Y39370
X77470Y39370
X58420Y34290
X77470Y36830
X68580Y66040
X83820Y59690
X68580Y63500
X83820Y57150
X67310Y60960
X83820Y54610
X69850Y68580
X85090Y63500
X34290Y1270
X36830Y16510
X39370Y21590
X46990Y25400
X39370Y13970
X41910Y21590
X33020Y49530
X31750Y44450
X19050Y19050
X48260Y52070
X34290Y27940
X34302Y20308
X34290Y24130
X7620Y8890
X7620Y33020
X46990Y54610
X12700Y34290
X24130Y35560
X26670Y33020
X30480Y27940
X36830Y10160
X31750Y7620
X30480Y13970
X35548Y20332
X46978Y43192
X33985Y16384
X67310Y30480
X35204Y17424
M30