%
M48
M72
T01C0.02000
T02C0.03200
T03C0.03346
T04C0.03543
T05C0.03937
T06C0.04000
T07C0.05906
T08C0.12500
%
T01
X121250Y38333
X166250Y18333
X216250Y33333
X236250Y43333
X246250Y58333
X236250Y68333
X229850Y71933
X225050Y67836
X211250Y58333
X226296Y83288
X231204Y83379
X246250Y88333
X256250Y88333
X276250Y103333
X276250Y118333
X311250Y128333
X321250Y138333
X356250Y123333
X371250Y143333
X376250Y158333
X396250Y158333
X396250Y148333
X376250Y93333
X281296Y168288
X276204Y173379
X281250Y208333
X276250Y218333
X276250Y228333
X221250Y198333
X216250Y178333
X186250Y143333
X196250Y133333
X211250Y113333
X226250Y113333
X226250Y98333
X181250Y103333
X166250Y78333
X151250Y108333
X139850Y123233
X141250Y138333
X151250Y143333
X156250Y138333
X146250Y153333
X136250Y173333
X121250Y133333
X126250Y223333
X161250Y228333
X141250Y273333
X356250Y243333
X361250Y253333
X361250Y263333
X366250Y273333
X421250Y238333
X421250Y228333
X421250Y218333
X426250Y253333
X226250Y8333
T02
X336250Y98333
X351250Y98333
X366250Y98333
X381250Y98333
X416250Y123333
X406250Y138333
X406250Y148333
X406250Y158333
X406250Y168333
X406250Y178333
X406250Y188333
X406250Y198333
X406250Y208333
X406250Y218333
X406250Y228333
X406250Y238333
X406250Y248333
X406250Y258333
X406250Y268333
X386250Y278333
X386250Y318333
X436250Y268333
X436250Y258333
X436250Y248333
X436250Y238333
X436250Y228333
X436250Y218333
X436250Y208333
X436250Y198333
X436250Y188333
X436250Y178333
X436250Y168333
X436250Y158333
X436250Y148333
X436250Y138333
X456250Y123333
X466250Y113333
X466250Y103333
X381250Y138333
X366250Y138333
X351250Y138333
X336250Y138333
X336250Y158333
X316250Y158333
X291250Y153333
X291250Y163333
X291250Y173333
X291250Y183333
X291250Y193333
X291250Y203333
X291250Y213333
X291250Y223333
X291250Y233333
X316250Y233333
X316250Y223333
X316250Y193333
X326250Y193333
X291250Y143333
X291250Y133333
X291250Y123333
X291250Y113333
X291250Y103333
X261250Y103333
X261250Y113333
X261250Y123333
X261250Y133333
X261250Y143333
X261250Y153333
X261250Y163333
X261250Y173333
X261250Y183333
X261250Y193333
X261250Y203333
X261250Y213333
X261250Y223333
X261250Y233333
X271250Y273333
X271250Y283333
X271250Y293333
X271250Y303333
X271250Y313333
X271250Y323333
X271250Y333333
X301250Y333333
X301250Y323333
X301250Y313333
X301250Y303333
X301250Y293333
X301250Y283333
X301250Y273333
X171250Y263333
X151250Y263333
X131250Y288333
X131250Y298333
X151250Y303333
X171250Y303333
X166250Y173333
X166250Y163333
T03
X112380Y272991
X112380Y292676
T04
X106250Y223176
X106250Y213333
X106250Y203491
T05
X211250Y263491
X211250Y283176
X396407Y303333
X416093Y303333
T06
X111250Y58333
X111250Y68333
X111250Y78333
X111250Y88333
X111250Y98333
X111250Y108333
X141250Y103333
X141250Y93333
X141250Y83333
X141250Y73333
X141250Y63333
X141250Y53333
X176250Y38333
X191250Y38333
X191250Y28333
X201250Y28333
X201250Y38333
X201250Y48333
X191250Y48333
X191250Y58333
X201250Y58333
X201250Y68333
X191250Y68333
X191250Y78333
X201250Y78333
X201250Y88333
X191250Y88333
X191250Y98333
X201250Y98333
X201250Y108333
X191250Y108333
X191250Y118333
X201250Y118333
X216250Y98333
X171250Y88333
X141250Y113333
X101250Y153333
X101250Y163333
X141250Y238333
X151250Y238333
X161250Y238333
X171250Y238333
X196250Y213333
X196250Y203333
X196250Y193333
X196250Y183333
X196250Y173333
X251250Y263333
X251250Y273333
X251250Y288333
X251250Y298333
X376250Y268333
X376250Y253333
X376250Y238333
X376250Y223333
X376250Y208333
X376250Y193333
X376250Y178333
X456250Y248333
X456250Y263333
X456250Y278333
X431250Y83333
X431250Y73333
X421250Y73333
X421250Y83333
X421250Y63333
X421250Y53333
X431250Y53333
X431250Y63333
X431250Y43333
X431250Y33333
X421250Y33333
X421250Y43333
X421250Y23333
X421250Y13333
X431250Y13333
X431250Y23333
X391250Y23333
X391250Y13333
X381250Y13333
X371250Y13333
X361250Y13333
X361250Y23333
X371250Y23333
X381250Y23333
X381250Y33333
X371250Y33333
X361250Y33333
X361250Y43333
X371250Y43333
X381250Y43333
X391250Y43333
X391250Y33333
X391250Y53333
X381250Y53333
X371250Y53333
X361250Y53333
X361250Y63333
X371250Y63333
X381250Y63333
X391250Y63333
X391250Y73333
X381250Y73333
X371250Y73333
X361250Y73333
X361250Y83333
X371250Y83333
X381250Y83333
X391250Y83333
X351250Y83333
X351250Y73333
X351250Y63333
X351250Y53333
X351250Y43333
X351250Y33333
X351250Y23333
X351250Y13333
X331250Y13333
X321250Y13333
X311250Y13333
X301250Y13333
X291250Y13333
X291250Y23333
X301250Y23333
X311250Y23333
X321250Y23333
X331250Y23333
X331250Y33333
X321250Y33333
X311250Y33333
X301250Y33333
X291250Y33333
X291250Y43333
X301250Y43333
X311250Y43333
X321250Y43333
X331250Y43333
X331250Y53333
X321250Y53333
X311250Y53333
X301250Y53333
X291250Y53333
X291250Y63333
X301250Y63333
X311250Y63333
X321250Y63333
X331250Y63333
X331250Y73333
X321250Y73333
X311250Y73333
X301250Y73333
X291250Y73333
X291250Y83333
X301250Y83333
X311250Y83333
X321250Y83333
X331250Y83333
X271250Y83333
X271250Y73333
X261250Y73333
X261250Y83333
X261250Y63333
X261250Y53333
X271250Y53333
X271250Y63333
X271250Y43333
X271250Y33333
X261250Y33333
X261250Y43333
X261250Y23333
X261250Y13333
X271250Y13333
X271250Y23333
X201250Y18333
X191250Y18333
T07
X101750Y269054
X101750Y296613
T08
X101250Y313333
X101250Y389333
X474950Y389333
X474950Y313333
M30
