G75*
%MOIN*%
%OFA0B0*%
%FSLAX25Y25*%
%IPPOS*%
%LPD*%
%AMOC8*
5,1,8,0,0,1.08239X$1,22.5*
%
%ADD10C,0.13300*%
%ADD11R,0.06115X0.02375*%
%ADD12C,0.06546*%
%ADD13C,0.09658*%
%ADD14C,0.08200*%
%ADD15C,0.06743*%
%ADD16OC8,0.06400*%
%ADD17C,0.07137*%
%ADD18C,0.06400*%
%ADD19OC8,0.08200*%
%ADD20C,0.06400*%
D10*
X0101250Y0313333D03*
X0101250Y0389333D03*
X0474950Y0389333D03*
X0474950Y0313333D03*
D11*
X0112380Y0287951D03*
X0112380Y0285392D03*
X0112380Y0282833D03*
X0112380Y0280274D03*
X0112380Y0277715D03*
D12*
X0112380Y0272991D03*
X0112380Y0292676D03*
D13*
X0101750Y0296613D03*
X0101750Y0269054D03*
D14*
X0111250Y0058333D03*
X0111250Y0068333D03*
X0111250Y0078333D03*
X0111250Y0088333D03*
X0111250Y0098333D03*
X0111250Y0108333D03*
X0141250Y0103333D03*
X0141250Y0093333D03*
X0141250Y0083333D03*
X0141250Y0073333D03*
X0141250Y0063333D03*
X0141250Y0053333D03*
X0176250Y0038333D03*
X0171250Y0088333D03*
X0141250Y0113333D03*
X0101250Y0153333D03*
X0101250Y0163333D03*
X0141250Y0238333D03*
X0151250Y0238333D03*
X0161250Y0238333D03*
X0171250Y0238333D03*
X0196250Y0213333D03*
X0196250Y0203333D03*
X0196250Y0193333D03*
X0196250Y0183333D03*
X0196250Y0173333D03*
X0216250Y0098333D03*
X0261250Y0083333D03*
X0261250Y0073333D03*
X0271250Y0073333D03*
X0271250Y0083333D03*
X0291250Y0083333D03*
X0291250Y0073333D03*
X0301250Y0073333D03*
X0311250Y0073333D03*
X0321250Y0073333D03*
X0331250Y0073333D03*
X0331250Y0083333D03*
X0321250Y0083333D03*
X0311250Y0083333D03*
X0301250Y0083333D03*
X0301250Y0063333D03*
X0301250Y0053333D03*
X0291250Y0053333D03*
X0291250Y0063333D03*
X0271250Y0063333D03*
X0271250Y0053333D03*
X0261250Y0053333D03*
X0261250Y0063333D03*
X0261250Y0043333D03*
X0261250Y0033333D03*
X0271250Y0033333D03*
X0271250Y0043333D03*
X0291250Y0043333D03*
X0291250Y0033333D03*
X0301250Y0033333D03*
X0311250Y0033333D03*
X0321250Y0033333D03*
X0331250Y0033333D03*
X0331250Y0043333D03*
X0321250Y0043333D03*
X0311250Y0043333D03*
X0301250Y0043333D03*
X0311250Y0053333D03*
X0321250Y0053333D03*
X0331250Y0053333D03*
X0331250Y0063333D03*
X0321250Y0063333D03*
X0311250Y0063333D03*
X0351250Y0063333D03*
X0351250Y0053333D03*
X0351250Y0043333D03*
X0351250Y0033333D03*
X0351250Y0023333D03*
X0351250Y0013333D03*
X0361250Y0013333D03*
X0371250Y0013333D03*
X0381250Y0013333D03*
X0391250Y0013333D03*
X0391250Y0023333D03*
X0381250Y0023333D03*
X0371250Y0023333D03*
X0361250Y0023333D03*
X0361250Y0033333D03*
X0371250Y0033333D03*
X0381250Y0033333D03*
X0391250Y0033333D03*
X0391250Y0043333D03*
X0381250Y0043333D03*
X0371250Y0043333D03*
X0361250Y0043333D03*
X0361250Y0053333D03*
X0371250Y0053333D03*
X0381250Y0053333D03*
X0391250Y0053333D03*
X0391250Y0063333D03*
X0381250Y0063333D03*
X0371250Y0063333D03*
X0361250Y0063333D03*
X0361250Y0073333D03*
X0371250Y0073333D03*
X0381250Y0073333D03*
X0391250Y0073333D03*
X0391250Y0083333D03*
X0381250Y0083333D03*
X0371250Y0083333D03*
X0361250Y0083333D03*
X0351250Y0083333D03*
X0351250Y0073333D03*
X0331250Y0023333D03*
X0331250Y0013333D03*
X0321250Y0013333D03*
X0311250Y0013333D03*
X0301250Y0013333D03*
X0291250Y0013333D03*
X0291250Y0023333D03*
X0301250Y0023333D03*
X0311250Y0023333D03*
X0321250Y0023333D03*
X0271250Y0023333D03*
X0271250Y0013333D03*
X0261250Y0013333D03*
X0261250Y0023333D03*
X0421250Y0023333D03*
X0421250Y0013333D03*
X0431250Y0013333D03*
X0431250Y0023333D03*
X0431250Y0033333D03*
X0421250Y0033333D03*
X0421250Y0043333D03*
X0431250Y0043333D03*
X0431250Y0053333D03*
X0421250Y0053333D03*
X0421250Y0063333D03*
X0431250Y0063333D03*
X0431250Y0073333D03*
X0421250Y0073333D03*
X0421250Y0083333D03*
X0431250Y0083333D03*
X0376250Y0178333D03*
X0376250Y0193333D03*
X0376250Y0208333D03*
X0376250Y0223333D03*
X0376250Y0238333D03*
X0376250Y0253333D03*
X0376250Y0268333D03*
X0456250Y0263333D03*
X0456250Y0248333D03*
X0456250Y0278333D03*
X0251250Y0273333D03*
X0251250Y0263333D03*
X0251250Y0288333D03*
X0251250Y0298333D03*
D15*
X0106250Y0223176D03*
X0106250Y0213333D03*
X0106250Y0203491D03*
D16*
X0166250Y0173333D03*
X0166250Y0163333D03*
X0171250Y0263333D03*
X0151250Y0263333D03*
X0131250Y0288333D03*
X0131250Y0298333D03*
X0151250Y0303333D03*
X0171250Y0303333D03*
X0316250Y0233333D03*
X0316250Y0223333D03*
X0316250Y0193333D03*
X0326250Y0193333D03*
X0336250Y0158333D03*
X0336250Y0138333D03*
X0351250Y0138333D03*
X0366250Y0138333D03*
X0381250Y0138333D03*
X0416250Y0123333D03*
X0381250Y0098333D03*
X0366250Y0098333D03*
X0351250Y0098333D03*
X0336250Y0098333D03*
X0456250Y0123333D03*
X0466250Y0113333D03*
X0466250Y0103333D03*
X0386250Y0278333D03*
X0386250Y0318333D03*
D17*
X0396407Y0303333D03*
X0416093Y0303333D03*
X0211250Y0283176D03*
X0211250Y0263491D03*
D18*
X0258450Y0233333D02*
X0264050Y0233333D01*
X0264050Y0223333D02*
X0258450Y0223333D01*
X0258450Y0213333D02*
X0264050Y0213333D01*
X0264050Y0203333D02*
X0258450Y0203333D01*
X0258450Y0193333D02*
X0264050Y0193333D01*
X0264050Y0183333D02*
X0258450Y0183333D01*
X0258450Y0173333D02*
X0264050Y0173333D01*
X0264050Y0163333D02*
X0258450Y0163333D01*
X0258450Y0153333D02*
X0264050Y0153333D01*
X0264050Y0143333D02*
X0258450Y0143333D01*
X0258450Y0133333D02*
X0264050Y0133333D01*
X0264050Y0123333D02*
X0258450Y0123333D01*
X0258450Y0113333D02*
X0264050Y0113333D01*
X0264050Y0103333D02*
X0258450Y0103333D01*
X0288450Y0103333D02*
X0294050Y0103333D01*
X0294050Y0113333D02*
X0288450Y0113333D01*
X0288450Y0123333D02*
X0294050Y0123333D01*
X0294050Y0133333D02*
X0288450Y0133333D01*
X0288450Y0143333D02*
X0294050Y0143333D01*
X0294050Y0153333D02*
X0288450Y0153333D01*
X0288450Y0163333D02*
X0294050Y0163333D01*
X0294050Y0173333D02*
X0288450Y0173333D01*
X0288450Y0183333D02*
X0294050Y0183333D01*
X0294050Y0193333D02*
X0288450Y0193333D01*
X0288450Y0203333D02*
X0294050Y0203333D01*
X0294050Y0213333D02*
X0288450Y0213333D01*
X0288450Y0223333D02*
X0294050Y0223333D01*
X0294050Y0233333D02*
X0288450Y0233333D01*
X0298450Y0273333D02*
X0304050Y0273333D01*
X0304050Y0283333D02*
X0298450Y0283333D01*
X0298450Y0293333D02*
X0304050Y0293333D01*
X0304050Y0303333D02*
X0298450Y0303333D01*
X0298450Y0313333D02*
X0304050Y0313333D01*
X0304050Y0323333D02*
X0298450Y0323333D01*
X0298450Y0333333D02*
X0304050Y0333333D01*
X0274050Y0333333D02*
X0268450Y0333333D01*
X0268450Y0323333D02*
X0274050Y0323333D01*
X0274050Y0313333D02*
X0268450Y0313333D01*
X0268450Y0303333D02*
X0274050Y0303333D01*
X0274050Y0293333D02*
X0268450Y0293333D01*
X0268450Y0283333D02*
X0274050Y0283333D01*
X0274050Y0273333D02*
X0268450Y0273333D01*
X0403450Y0268333D02*
X0409050Y0268333D01*
X0409050Y0258333D02*
X0403450Y0258333D01*
X0403450Y0248333D02*
X0409050Y0248333D01*
X0409050Y0238333D02*
X0403450Y0238333D01*
X0403450Y0228333D02*
X0409050Y0228333D01*
X0409050Y0218333D02*
X0403450Y0218333D01*
X0403450Y0208333D02*
X0409050Y0208333D01*
X0409050Y0198333D02*
X0403450Y0198333D01*
X0403450Y0188333D02*
X0409050Y0188333D01*
X0409050Y0178333D02*
X0403450Y0178333D01*
X0403450Y0168333D02*
X0409050Y0168333D01*
X0409050Y0158333D02*
X0403450Y0158333D01*
X0403450Y0148333D02*
X0409050Y0148333D01*
X0409050Y0138333D02*
X0403450Y0138333D01*
X0433450Y0138333D02*
X0439050Y0138333D01*
X0439050Y0148333D02*
X0433450Y0148333D01*
X0433450Y0158333D02*
X0439050Y0158333D01*
X0439050Y0168333D02*
X0433450Y0168333D01*
X0433450Y0178333D02*
X0439050Y0178333D01*
X0439050Y0188333D02*
X0433450Y0188333D01*
X0433450Y0198333D02*
X0439050Y0198333D01*
X0439050Y0208333D02*
X0433450Y0208333D01*
X0433450Y0218333D02*
X0439050Y0218333D01*
X0439050Y0228333D02*
X0433450Y0228333D01*
X0433450Y0238333D02*
X0439050Y0238333D01*
X0439050Y0248333D02*
X0433450Y0248333D01*
X0433450Y0258333D02*
X0439050Y0258333D01*
X0439050Y0268333D02*
X0433450Y0268333D01*
D19*
X0201250Y0118333D03*
X0201250Y0108333D03*
X0191250Y0108333D03*
X0191250Y0118333D03*
X0191250Y0098333D03*
X0191250Y0088333D03*
X0201250Y0088333D03*
X0201250Y0098333D03*
X0201250Y0078333D03*
X0201250Y0068333D03*
X0191250Y0068333D03*
X0191250Y0078333D03*
X0191250Y0058333D03*
X0191250Y0048333D03*
X0201250Y0048333D03*
X0201250Y0058333D03*
X0201250Y0038333D03*
X0201250Y0028333D03*
X0191250Y0028333D03*
X0191250Y0038333D03*
X0191250Y0018333D03*
X0201250Y0018333D03*
D20*
X0316250Y0158333D03*
M02*
